<svg version="1.1" xmlns="http://www.w3.org/2000/svg" xmlns:xlink="http://www.w3.org/1999/xlink" viewBox="0 0 224 224"><g fill="none" fill-rule="nonzero" stroke="none" stroke-width="1" stroke-linecap="butt" stroke-linejoin="miter" stroke-miterlimit="10" stroke-dasharray="" stroke-dashoffset="0" font-family="none" font-weight="none" font-size="none" text-anchor="none" style="mix-blend-mode: normal"><path d="M0,224v-224h224v224z" fill="none"/><g fill="#3498db"><g id="surface1"><path d="M112,2.66l-3.22,3.08l-35.84,35.84c-1.785,1.785 -1.785,4.655 0,6.44c1.785,1.785 4.655,1.785 6.44,0l28.14,-28.14v123.48c-0.0175,1.61 0.8225,3.115 2.2225,3.9375c1.4,0.805 3.115,0.805 4.515,0c1.4,-0.8225 2.24,-2.3275 2.2225,-3.9375v-123.48l28.14,28.14c1.785,1.785 4.655,1.785 6.44,0c1.785,-1.785 1.785,-4.655 0,-6.44l-35.84,-35.84zM31.36,71.68v152.32h161.28v-152.32h-44.8c-1.61,-0.0175 -3.115,0.8225 -3.9375,2.2225c-0.805,1.4 -0.805,3.115 0,4.515c0.8225,1.4 2.3275,2.24 3.9375,2.2225h35.84v134.4h-143.36v-134.4h35.84c1.61,0.0175 3.115,-0.8225 3.9375,-2.2225c0.805,-1.4 0.805,-3.115 0,-4.515c-0.8225,-1.4 -2.3275,-2.24 -3.9375,-2.2225z"/></g></g></g></svg>